:SAMPLES-PER-SECOND 30
:FULLY-SPECIFIED
:DEGREES
171
root  128.784 17.3334 1.81697 66.2508 61.6879 86.6583
RightUpLeg  98.3224 6.2095 154.947
RightLeg  27.8729 45.9116 -157.76
RightFoot  -17.793 -16.2358 53.6762
RightToes  -4.65663e-010 -1.59028e-015 9.93923e-017
Spine  2.52618 16.3946 -52.2653
Spine1  -24.6028 8.28728 57.953
HEad  -16.9499 -8.8381 -13.32
LeftShoulder1  9.93923e-017 0 1.22299e-017
LeftArm  -22.5475 39.357 -91.7478
LeftForeArm  -36.9248 -55.2944 35.9931
LeftHand  0.575444 5.70021 17.1153
RightShoulder  1.98785e-016 -4.96962e-017 1.55301e-017
RightArm  61.9569 -46.7088 38.2377
RightForeArm  -35.1026 16.2008 -0.0321843
RightHand  1.69071 -13.6733 -6.56076
LeftUpLeg  53.6111 11.8682 17.9379
LeftLeg  91.0572 -18.8369 -58.744
LeftFoot  -60.8066 7.94566 18.583
LeftToes  3.34876e-009 -9.68256e-011 -6.12847e-011
172
root  128.062 15.4822 -0.0722071 -14.5843 63.3073 44.6366
RightUpLeg  28.5396 -27.6371 -145.083
RightLeg  45.6275 -23.636 171.844
RightFoot  46.5763 -21.2492 37.4823
RightToes  -4.65663e-010 -1.59028e-015 9.93923e-017
Spine  52.7971 31.5407 -6.71168
Spine1  -29.9399 13.1072 48.6677
HEad  -15.368 -11.816 -11.0285
LeftShoulder1  9.93923e-017 0 1.22299e-017
LeftArm  -21.6645 41.5488 -96.4781
LeftForeArm  -32.4747 -49.2695 30.5932
LeftHand  0.607503 5.87304 18.4989
RightShoulder  1.98785e-016 -4.96962e-017 1.55301e-017
RightArm  59.4912 -47.6758 38.9098
RightForeArm  -30.9443 15.84 0.218032
RightHand  1.13756 -10.2073 -5.60752
LeftUpLeg  89.0085 -27.5928 51.4465
LeftLeg  97.1913 -21.2253 -76.6186
LeftFoot  -41.9987 5.1604 23.0396
LeftToes  3.34876e-009 -9.68256e-011 -6.12847e-011
173
root  133.73 17.7619 -0.331455 -129.545 26.1898 42.9515
RightUpLeg  79.2611 -23.9965 8.66834
RightLeg  31.151 16.7001 -162.38
RightFoot  -68.4348 41.1242 59.1118
RightToes  -4.65663e-010 -1.59028e-015 9.93923e-017
Spine  120.208 -29.3806 37.4487
Spine1  -27.379 32.037 58.2633
HEad  -10.4324 -13.2389 -8.9735
LeftShoulder1  9.93923e-017 0 1.22299e-017
LeftArm  -20.203 43.1977 -99.9482
LeftForeArm  -33.4459 -40.7175 24.7571
LeftHand  0.396094 5.09786 17.1604
RightShoulder  1.98785e-016 -4.96962e-017 1.55301e-017
RightArm  56.9287 -51.0848 40.7769
RightForeArm  -30.8722 15.2921 0.949375
RightHand  0.951013 -8.87143 -6.22788
LeftUpLeg  178.729 -44.4919 51.6463
LeftLeg  55.8668 -0.721871 -25.1971
LeftFoot  -22.9819 -0.684247 -12.6112
LeftToes  3.34876e-009 -9.68256e-011 -6.12847e-011
174
root  135.719 13.3326 1.23852 -149.169 14.5825 37.7472
RightUpLeg  16.1846 37.7062 -62.4702
RightLeg  51.4602 -37.3605 149.874
RightFoot  19.2521 -4.72964 50.4223
RightToes  -4.65663e-010 -1.59028e-015 9.93923e-017
Spine  124.541 -42.5984 50.7698
Spine1  -31.7854 37.8901 75.9618
HEad  -2.7824 -9.03673 -13.0436
LeftShoulder1  9.93923e-017 0 1.22299e-017
LeftArm  -50.3942 50.1427 -117.348
LeftForeArm  -21.1543 -29.2967 19.9984
LeftHand  0.0385454 3.92942 17.3497
RightShoulder  1.98785e-016 -4.96962e-017 1.55301e-017
RightArm  114.864 -29.8386 45.7574
RightForeArm  -78.5671 31.0859 -22.9598
RightHand  0.723062 -7.01922 -3.90816
LeftUpLeg  -179.968 -13.371 82.6718
LeftLeg  46.8324 3.38415 52.5658
LeftFoot  -12.7638 2.61736 -65.2868
LeftToes  3.34876e-009 -9.68256e-011 -6.12847e-011
175
root  135.125 11.0073 2.47601 -138.418 22.0101 36.1734
RightUpLeg  95.6725 26.2886 35.8451
RightLeg  101.61 -58.4389 80.7464
RightFoot  -56.4733 -20.2436 -23.265
RightToes  -4.65663e-010 -1.59028e-015 9.93923e-017
Spine  128.729 -21.4016 34.9218
Spine1  -44.3953 37.4642 81.0617
HEad  -4.7353 -6.89942 -9.56467
LeftShoulder1  9.93923e-017 0 1.22299e-017
LeftArm  -87.2603 67.6327 -135.83
LeftForeArm  -8.59859 -24.2551 17.4194
LeftHand  -0.183145 3.38953 19.0277
RightShoulder  1.98785e-016 -4.96962e-017 1.55301e-017
RightArm  9.70091 -27.2897 56.0469
RightForeArm  17.617 7.63767 -3.43343
RightHand  1.32517 -19.3248 3.28148
LeftUpLeg  -62.6587 -47.2796 -94.308
LeftLeg  90.5206 -10.0315 -61.0471
LeftFoot  17.726 -4.47143 2.24905
LeftToes  3.34876e-009 -9.68256e-011 -6.12847e-011
176
root  135.734 11.7804 1.38655 -133.571 27.8515 46.7766
RightUpLeg  -65.1955 27.7126 -138.123
RightLeg  56.7098 -42.3423 139.142
RightFoot  20.2788 -27.0974 29.8383
RightToes  -4.65663e-010 -1.59028e-015 9.93923e-017
Spine  134.334 -0.602336 26.3866
Spine1  -49.2057 39.4282 96.5388
HEad  -5.87852 -0.860542 -11.4518
LeftShoulder1  9.93923e-017 0 1.22299e-017
LeftArm  -154.574 77.3973 -165.931
LeftForeArm  20.2507 -10.3362 14.3283
LeftHand  -0.293928 3.26344 20.8797
RightShoulder  1.98785e-016 -4.96962e-017 1.55301e-017
RightArm  -46.4206 -36.3461 69.4241
RightForeArm  49.3013 -7.52538 -11.9293
RightHand  1.55043 -28.7733 5.87971
LeftUpLeg  -96.8239 -35.8857 -67.7181
LeftLeg  106.317 1.46076 -70.4596
LeftFoot  -1.8684 -2.39242 23.7815
LeftToes  3.34876e-009 -9.68256e-011 -6.12847e-011
177
root  128.655 8.04339 4.90111 176.713 13.1664 -27.8052
RightUpLeg  -52.5703 38.1213 125.903
RightLeg  36.8227 -29.9291 166.532
RightFoot  62.5925 -19.2465 29.187
RightToes  -4.65663e-010 -1.59028e-015 9.93923e-017
Spine  7.84803 -62.4752 134.748
Spine1  -116.863 8.4321 17.3357
HEad  3.125 -4.40476 3.97379
LeftShoulder1  9.93923e-017 0 1.22299e-017
LeftArm  -79.2596 53.5644 171.096
LeftForeArm  -7.20225 -1.19525 1.44219
LeftHand  -0.519936 2.02392 17.1391
RightShoulder  1.98785e-016 -4.96962e-017 1.55301e-017
RightArm  0.883849 -21.8724 5.20251
RightForeArm  19.0249 -1.53682 -0.336864
RightHand  1.45866 -34.5987 7.45467
LeftUpLeg  -114.434 14.7979 -136.974
LeftLeg  98.6831 38.1377 -87.5935
LeftFoot  -0.919494 -2.12835 19.4243
LeftToes  3.34876e-009 -9.68256e-011 -6.12847e-011
178
root  134.02 13.2668 2.80454 -149.801 21.9262 32.1847
RightUpLeg  -54.7734 66.379 -152.47
RightLeg  44.8341 -36.239 158.039
RightFoot  29.5018 -3.05418 9.09515
RightToes  -4.65663e-010 -1.59028e-015 9.93923e-017
Spine  149.208 -48.9744 11.3318
Spine1  -57.5577 25.7904 75.1907
HEad  -5.30224 6.27461 0.668366
LeftShoulder1  9.93923e-017 0 1.22299e-017
LeftArm  -119.038 57.4743 -140.288
LeftForeArm  28.6587 4.28031 15.6216
LeftHand  -0.541174 2.50872 20.1276
RightShoulder  1.98785e-016 -4.96962e-017 1.55301e-017
RightArm  -32.2735 -21.0765 74.3601
RightForeArm  54.6476 -3.91571 -4.32613
RightHand  0.953166 -9.92979 1.31164
LeftUpLeg  -115.188 -36.7124 -83.8942
LeftLeg  109.874 17.2228 -62.1834
LeftFoot  0.740357 1.57951 -7.04367
LeftToes  3.34876e-009 -9.68256e-011 -6.12847e-011
